<svg width="512" height="512" viewBox="0 0 512 512" fill="none" xmlns="http://www.w3.org/2000/svg">
<rect width="512" height="512" fill="#030E2C"/>
<path d="M183.393 389.038C257.001 429.004 349.072 401.731 389.038 328.123C429.004 254.515 401.731 162.445 328.123 122.479C254.515 82.5125 162.445 109.785 122.479 183.393C82.5125 257.001 109.785 349.072 183.393 389.038Z" stroke="white" stroke-width="14.9172"/>
<path d="M271.119 284.606C277.178 281.094 281.368 274.926 282.77 267.456C284.171 259.986 282.669 251.825 278.593 244.765C271.986 233.249 244.419 220.96 231.608 216.171C229.552 229.937 226.283 259.734 232.921 271.232C237.007 278.269 243.32 283.628 250.479 286.134C257.637 288.641 265.059 288.091 271.119 284.606V284.606Z" fill="white"/>
<path d="M255.598 95.4552C179.851 94.4699 134.526 151.126 134.526 151.126L174.358 185.12C195.637 160.974 226.879 147.678 255.598 147.678C285.374 147.678 318.309 161.588 339.967 187.201L379.556 154.575C350.314 118.508 305.644 96.1062 255.598 95.4552Z" fill="#016AFF"/>
<path d="M405.25 310.257C411.619 293.028 415.098 274.398 415.098 254.955C415.098 216.916 401.782 181.987 379.556 154.575L339.967 187.201C360.861 211.912 371.259 247.516 358.195 292.028L405.25 310.257Z" fill="#4A96FF"/>
<path d="M96.0979 254.955C96.0979 274.769 99.7107 293.739 106.314 311.242L154.232 292.521C140.939 246.872 152.29 210.162 174.358 185.12L134.526 151.116C110.572 179.019 96.0979 215.297 96.0979 254.955Z" fill="#014FBA"/>
</svg>
